<?xml version="1.0" encoding="UTF-8" standalone="no"?>
<svg
   xmlns:dc="http://purl.org/dc/elements/1.1/"
   xmlns:cc="http://creativecommons.org/ns#"
   xmlns:rdf="http://www.w3.org/1999/02/22-rdf-syntax-ns#"
   xmlns:svg="http://www.w3.org/2000/svg"
   xmlns="http://www.w3.org/2000/svg"
   id="svg39"
   version="1.1"
   viewBox="0 0 210 297"
   height="297mm"
   width="210mm">
  <defs
     id="defs33">
     <style type="text/css"><![CDATA[
       @keyframes cloud-move-reverse {
         0% {
           transform: translate(0px, 0px);
         }
         100% {
           transform: translate(400px, 0px);
         }
       }

       @keyframes pig-move {
         0% {
           transform: translate(700px, 90px);
         }
         20% {
           transform: translate(0px, 0px);
         }
         21% {
           transform: translate(0px, 20px);
         }
         22% {
           transform: translate(0px, 0px);
         }
         23% {
           transform: translate(0px, 20px);
         }
         24% {
           transform: translate(0px, 0px);
         }
         40% {
           transform: translate(-500px, 0px);
         }
         41% {
           transform: translate(-500px, 20px);
         }
         42% {
           transform: translate(-500px, 0px);
         }
         43% {
           transform: translate(-500px, 20px);
         }
         44% {
           transform: translate(-500px, 0px);
         }
         50% {
           transform: translate(-700px, 0px);
         }
         54% {
           transform: translate(-700px, 00px);
         }
         55% {
           transform: translate(-700px, 70px);
         }
         56% {
           transform: translate(-700px, 0px);
         }
         60% {
           transform: translate(-500px, 0px) rotateY(180deg);
           transform-origin: center;
         }
         75% {
           transform: translate(0px, 0px) rotateY(180deg);
           transform-origin: center;
         }
         100% {
           transform: translate(4200px, 800px) rotateY(180deg);
           transform-origin: center;
         }
       }

       @keyframes hawk-move {
         0% {
           transform: translate(100px, 0px);
         }
         50% {
           transform: translate(100px, 0px);
         }
         75% {
           transform: translate(-110px, 140px);
         }
         100% {
           transform: translate(-480px, 80px);
         }
       }

       .cloud-back {
         animation: 34s cloud-move-reverse infinite alternate linear;
       }

       .png-cloud {
         animation: 13s cloud-move-reverse infinite alternate linear;
       }

       .png-hawk {
         animation: 9s hawk-move infinite linear;
       }

       .png-pig {
         animation: 9s pig-move infinite linear;
    ]]></style>
   </defs>
  <metadata
     id="metadata36">
    <rdf:RDF>
      <cc:Work
         rdf:about="">
        <dc:format>image/svg+xml</dc:format>
        <dc:type
           rdf:resource="http://purl.org/dc/dcmitype/StillImage" />
        <dc:title></dc:title>
      </cc:Work>
    </rdf:RDF>
  </metadata>
  <g
     id="layer1">
    <g
       transform="matrix(0.51889797,0,0,0.41957087,0.10156424,84.152839)"
       id="g605">
      <path
         style="fill:#ffd4aa"
         d="m 92.445,68.338 c 1.576,47.444 1.92,94.966 2.888,142.43 0.269,13.185 0.501,26.369 0.718,39.556 0.153,9.333 -1.095,21.529 2.684,30.352 8.146,19.02 41.554,24.642 59.28,20.205 10.22,-2.558 18.017,-11.663 25.688,-18.311 7.423,-6.434 8.915,-6.504 9.52,-15.447 1.996,-29.466 3.991,-58.931 5.987,-88.396 2.155,-31.811 4.309,-63.622 6.463,-95.433 1.171,-17.283 2.985,-35.608 -4.77,-51.744 C 188.091,4.897 148.491,-8.673 122.094,6.044 c -14.061,7.839 -21.175,19.54 -26.402,34.472 -1.115,3.184 -1.518,6.78 -2.096,10.104 -0.625,3.59 -1.316,1.716 -2.867,3.996 -3.902,5.737 -3.898,8.915 1.716,13.723"
         id="path291" />
      <path
         d="m 106.74,75.2 -1.017,166.73 c -0.042,6.868 -0.084,13.737 -0.126,20.606 -0.004,0.77499 -1.681,4.118 -0.192,4.417 2.717,0.54501 2.521,-12.764 2.574,-14.104 0.991,-25.121 0.876,-50.283 0.7,-75.418 -0.137,-19.503 -0.062,-39.006 -0.245,-58.51 -0.1,-10.564 -0.38599,-21.146 -0.359,-31.709 0.007,-2.83 2.06,-15.431 -1.335,-12.01"
         id="path293" />
      <path
         d="m 97.782,68.338 c 0,48.238 0.539,96.49 0.866,144.73 0.083,12.18 0.227,24.36 0.279,36.54 0.04,9.331 -3.002,24.667 3.396,32.487 16.376,20.017 44.803,17.873 67.431,12.815 1.043,-0.232 2.086,-0.466 3.129,-0.699 -19.868,8.396 -44.215,10.899 -62.684,-2.295 -19.582,-13.99 -13.178,-41.777 -13.178,-62.981 0,-47.963 -0.382,-95.926 -0.382,-143.89 0,-5.635 1.417,-12.756 -2.288,-17.469 0.941,-0.015 2.391,0.282 3.431,0.764"
         id="path295" />
      <path
         d="m 93.208,53.28 c 2.943,-26.147 17.519,-42.643 42.228,-50.386 23.093,-7.236 48.094,1.822 61.891,20.856 6.577,9.073 10.359,22.005 9.392,33.158 -0.69099,7.981 -19.682,13.292 -26.022,14.29 -3.984,0.627 -12.249,1.849 -15.057,-1.335 -2.693,-3.054 -1.753,-11.562 -2.407,-15.371 -1.449,-8.444 -2.95,-25.723 -12.464,-29.66 -23.483,-9.717 -52.727,2.901 -57.561,28.448"
         id="path297" />
      <path
         d="m 101.21,75.2 c -7.951,1.278 2.857,7.671 5.91,6.861 6.863,-1.821 -4.102,-5.699 -5.91,-6.861"
         id="path299" />
      <path
         d="m 101.21,88.924 c -7.953,1.278 2.833,7.693 5.91,6.863 6.814,-1.838 -4.008,-5.67 -5.91,-6.863"
         id="path301" />
      <path
         d="m 204.9,62.62 c 2.449,24.471 -0.10899,49.975 -1.034,74.507 -0.87199,23.145 -1.919,46.274 -3.159,69.402 -1.314,24.522 -2.911,48.978 -5.303,73.42 -0.778,7.946 -3.241,7.857 -10.204,10.543 -5.382,2.076 -10.906,3.868 -16.515,5.242 -10.906,2.672 -21.926,3.486 -33.064,2.177 -3.438,-0.40402 -12.11,-0.87201 -12.11,-5.165 V 73.486 c 27.234,6.761 57.613,4.177 81.389,-10.863"
         id="path303" />
      <path
         style="fill:#7f0000"
         d="m 135.71,148.2 c 7.717,3.16 18.723,0.73599 26.875,0.19 0,47.136 -2.807,95.061 -0.049,142.12 0.17401,2.974 -2.156,5.767 -0.99899,8.846 1.6,4.254 8.071,4.105 11.777,4.227 13.132,0.42602 26.259,0.81403 39.394,1.107 23.642,0.52899 47.282,1.038 70.929,1.216 20.852,0.15601 41.725,0.38202 62.567,-0.36398 3.743,-0.134 27.722,0.75 28.486,-3.838 1.844,-11.059 1.601,-22.627 2.082,-33.819 1.748,-40.617 -0.88498,-81.619 1.771,-122.16 4.16,1.055 8.627,1.717 12.899,2.195 2.779,0.311 12.777,2.417 7.401,-2.195 -8.432,-7.232 -17.854,-13.544 -26.854,-20.043 -19.445,-14.045 -38.998,-27.936 -58.927,-41.292 -10.325,-6.921 -20.618,-13.952 -31.417,-20.121 -9.448,-5.397 -10.617,-5.452 -19.036,0.11 -26.844,17.732 -53.688,35.464 -80.532,53.195 -15.454,10.21 -30.911,20.42 -46.367,30.63"
         id="path305" />
      <path
         d="m 206.05,298.4 c -8.944,-0.044 -17.888,-0.087 -26.833,-0.13101 -3.703,-0.018 -11.557,1.812 -13.575,-1.775 13.552,-1.948 28.527,0.405 42.314,0.19202 -0.196,1.395 -1.124,1.342 -1.906,1.714"
         id="path307" />
      <path
         d="m 206.05,290.59 c -8.944,-0.087 -17.888,-0.17398 -26.833,-0.26199 -3.537,-0.034 -11.519,1.803 -13.575,-1.834 13.541,-1.805 28.583,0.19 42.314,0.19 0.004,1.347 -0.841,1.311 -1.906,1.906"
         id="path309" />
      <path
         d="m 206.05,282.58 c -8.944,-0.044 -17.888,-0.088 -26.833,-0.13199 -3.715,-0.019 -11.471,1.811 -13.575,-1.774 13.175,-1.915 28.911,-0.47699 42.314,0.19 -0.053,1.344 -0.84,1.182 -1.906,1.716"
         id="path311" />
      <path
         d="m 206.05,274.58 c -8.944,-0.044 -17.888,-0.087 -26.833,-0.13101 -0.48801,-0.002 -15.198,0.55402 -13.385,-1.965 1.415,-1.966 18.545,0.189 21.286,0.189 6.949,0 13.889,0.19202 20.838,0.19202 -0.115,1.459 -1.078,1.341 -1.906,1.715"
         id="path313" />
      <path
         d="m 206.05,266.76 c -8.944,-0.087 -17.888,-0.17502 -26.833,-0.26199 -3.557,-0.035 -11.323,1.679 -13.575,-1.645 13.449,-1.944 28.614,0 42.314,0 0.036,1.42 -0.812,1.306 -1.906,1.907"
         id="path315" />
      <path
         d="m 206.05,258.76 c -8.944,-0.044 -17.888,-0.088 -26.833,-0.13199 -0.522,-0.003 -15.221,0.46198 -13.385,-1.966 1.528,-2.022 18.458,0.19199 21.286,0.19199 6.943,0 13.901,0.29501 20.838,0.189 -0.13901,1.49 -1.069,1.333 -1.906,1.717"
         id="path317" />
      <path
         d="m 206.05,250.94 c -8.944,-0.088 -17.888,-0.17601 -26.833,-0.26401 -3.524,-0.034 -11.586,1.779 -13.575,-1.834 13.411,-1.931 28.677,0.19101 42.314,0.19101 0.036,1.42 -0.812,1.307 -1.906,1.907"
         id="path319" />
      <path
         d="m 206.05,242.94 c -8.944,-0.044 -17.888,-0.088 -26.833,-0.132 -3.702,-0.018 -11.553,1.812 -13.575,-1.774 13.544,-1.958 28.533,0.399 42.314,0.189 -0.158,1.413 -1.075,1.328 -1.906,1.717"
         id="path321" />
      <path
         d="m 206.05,235.12 c -8.944,-0.088 -17.888,-0.176 -26.833,-0.26401 -3.536,-0.034 -11.516,1.801 -13.575,-1.832 13.503,-1.828 28.608,0.18901 42.314,0.18901 0.036,1.42 -0.812,1.307 -1.906,1.907"
         id="path323" />
      <path
         d="m 374.55,225.78 c -37.172,0.205 -74.345,0.41 -111.52,0.615 -24.184,0.133 -48.367,0.267 -72.551,0.399 -4.606,0.025 -22.25,3.057 -24.839,-1.586 15.16,-2.072 32.109,-0.28499 47.5,-0.38699 19.355,-0.129 38.712,-0.252 58.067,-0.37 35.078,-0.21501 70.166,-0.388 105.24,-0.388 -0.14398,1.461 -1.088,1.398 -1.905,1.717"
         id="path325" />
      <path
         d="m 374.55,217.58 c -37.172,0.171 -74.345,0.34201 -111.52,0.513 -23.686,0.108 -47.37,0.218 -71.055,0.326 -4.645,0.021 -23.69,3.173 -26.335,-1.601 15.161,-2.072 32.108,-0.287 47.5,-0.38901 19.356,-0.129 38.71,-0.185 58.067,-0.185 35.082,0 70.164,-0.571 105.24,-0.571 0.019,1.404 -0.81299,1.37 -1.905,1.907"
         id="path327" />
      <path
         d="m 374.55,209.2 c -37.172,0.171 -74.345,0.34201 -111.52,0.513 -23.686,0.108 -47.37,0.218 -71.055,0.326 -4.595,0.021 -23.682,3.209 -26.335,-1.603 15.081,-2.038 32.175,-0.283 47.5,-0.38701 19.356,-0.12999 38.71,-0.187 58.067,-0.187 35.082,0 70.164,-0.569 105.24,-0.569 0.018,1.403 -0.81299,1.37 -1.905,1.907"
         id="path329" />
      <path
         d="m 374.55,200.81 c -37.172,0.171 -74.345,0.34201 -111.52,0.513 -23.686,0.108 -47.37,0.218 -71.055,0.326 -4.594,0.021 -23.685,3.209 -26.335,-1.603 15.212,-1.884 32.12,-0.379 47.5,-0.379 19.357,0 38.711,-0.067 58.067,-0.188 35.081,-0.217 70.164,-0.386 105.24,-0.386 -0.072,1.333 -0.85098,1.236 -1.905,1.717"
         id="path331" />
      <path
         d="m 374.55,192.42 c -55.855,0.257 -111.71,0.51401 -167.57,0.77101 -11.309,0.052 -22.619,0.10399 -33.928,0.155 -2.258,0.011 -11.303,-1.879 -4.627,-1.879 24.168,0 48.337,-0.11499 72.505,-0.189 45.175,-0.13899 90.348,-0.573 135.52,-0.573 -0.224,1.413 -1.138,1.4 -1.906,1.715"
         id="path333" />
      <path
         d="m 374.55,184.04 c -37.172,0.205 -74.345,0.41101 -111.52,0.616 -24.184,0.134 -48.367,0.26701 -72.551,0.40001 -4.608,0.025 -22.248,3.057 -24.839,-1.586 15.161,-2.072 32.108,-0.287 47.5,-0.38901 19.355,-0.129 38.712,-0.25099 58.067,-0.369 35.078,-0.21399 70.166,-0.38699 105.24,-0.38699 -0.17099,1.493 -1.083,1.394 -1.905,1.715"
         id="path335" />
      <path
         d="m 374.55,175.84 c -37.172,0.171 -74.345,0.342 -111.52,0.513 -24.184,0.11099 -48.367,0.222 -72.551,0.33299 -4.574,0.021 -22.356,3.007 -24.839,-1.609 15.175,-2.051 32.098,-0.284 47.5,-0.38701 19.355,-0.12999 38.712,-0.25299 58.067,-0.37099 35.077,-0.214 70.169,-0.38501 105.24,-0.38501 -0.012,1.331 -0.84598,1.373 -1.905,1.906"
         id="path337" />
      <path
         d="m 374.55,167.46 c -37.172,0.171 -74.345,0.342 -111.52,0.513 -23.686,0.10899 -47.37,0.218 -71.055,0.326 -4.625,0.021 -23.715,3.173 -26.335,-1.603 15.082,-2.038 32.174,-0.28099 47.5,-0.38399 19.356,-0.13 38.71,-0.18701 58.067,-0.18701 35.082,0 70.164,-0.571 105.24,-0.571 0.019,1.403 -0.81299,1.369 -1.905,1.906"
         id="path339" />
      <path
         d="m 374.55,159.07 c -37.172,0.171 -74.345,0.342 -111.52,0.513 -23.686,0.10899 -47.37,0.218 -71.055,0.326 -4.593,0.021 -23.684,3.208 -26.335,-1.602 15.207,-1.894 32.125,-0.38 47.5,-0.38 19.357,0 38.711,-0.067 58.067,-0.18599 35.036,-0.21501 70.234,0.588 105.24,-0.578 0.044,1.463 -0.79498,1.362 -1.905,1.907"
         id="path341" />
      <path
         d="m 374.55,150.68 c -37.172,0.17099 -74.345,0.342 -111.52,0.513 -23.686,0.10899 -47.37,0.218 -71.055,0.326 -4.571,0.021 -23.757,3.179 -26.335,-1.6 15.194,-1.912 32.133,-0.382 47.5,-0.382 19.357,0 38.711,-0.067 58.067,-0.186 35.081,-0.215 70.164,-0.38599 105.24,-0.38599 -0.245,1.35 -1.124,1.386 -1.905,1.715"
         id="path343" />
      <path
         d="m 374.55,142.29 c -37.172,0.171 -74.345,0.34201 -111.52,0.513 -23.686,0.10901 -47.37,0.218 -71.055,0.326 -5.083,0.023 -22.958,3.185 -26.335,-1.41 15.072,-2.319 32.179,-0.285 47.5,-0.38699 19.355,-0.129 38.712,-0.252 58.067,-0.371 35.081,-0.214 70.164,-0.385 105.24,-0.385 -0.19299,1.423 -1.101,1.393 -1.905,1.714"
         id="path345" />
      <path
         d="m 364.06,133.91 c -33.677,0.207 -67.353,0.41299 -101.03,0.62 -21.516,0.132 -43.031,0.26401 -64.546,0.396 -4.472,0.027 -19.866,2.82 -22.365,-1.589 13.574,-2.208 29.357,-0.28401 43.196,-0.386 17.485,-0.13 34.971,-0.255 52.456,-0.375 31.391,-0.216 62.804,-0.438 94.193,-0.38101 -0.11301,1.435 -1.049,1.376 -1.906,1.715"
         id="path347" />
      <path
         d="m 349.96,125.71 c -29.705,0.174 -59.41,0.348 -89.114,0.522 -18.76,0.11 -37.519,0.22 -56.277,0.33 -3.934,0.023 -16.411,2.507 -18.721,-1.615 12.066,-1.851 25.84,-0.284 38.135,-0.388 15.228,-0.129 30.45,-0.182 45.679,-0.182 27.399,0 54.808,-0.748 82.205,-0.573 -0.045,0.173 0.02,0.3 0.19199,0.382 -0.44,1.018 -1.139,1.081 -2.099,1.524"
         id="path349" />
      <path
         d="m 335.85,117.32 c -25.037,0.174 -50.075,0.349 -75.113,0.523 -16.025,0.112 -32.051,0.223 -48.076,0.335 -0.427,0.003 -16.48,0.554 -15.193,-1.619 1.381,-2.332 28.826,-0.354 31.959,-0.385 12.948,-0.13 25.891,-0.187 38.84,-0.187 23.039,0 46.702,1.021 69.68,-0.573 -0.15701,1.334 -0.99902,1.374 -2.097,1.906"
         id="path351" />
      <path
         d="m 321.94,108.94 c -21.291,0.185 -42.582,0.369 -63.873,0.55399 -12.373,0.107 -24.746,0.214 -37.118,0.32101 -3.244,0.028 -8.825,1.54 -10.515,-1.636 18.652,-1.933 38.412,-0.354 57.236,-0.569 18.723,-0.215 37.452,-0.384 56.176,-0.384 -0.054,1.329 -0.83402,1.202 -1.906,1.714"
         id="path353" />
      <path
         d="m 307.83,100.55 c -16.653,0.183 -33.306,0.367 -49.959,0.55 -9.916,0.109 -19.832,0.218 -29.748,0.328 -2.919,0.032 -6.606,1.09 -8.354,-1.451 14.159,-2.719 30.961,-0.545 45.486,-0.756 14.824,-0.215 29.655,-0.386 44.48,-0.386 -0.19,1.413 -1.087,1.407 -1.905,1.715"
         id="path355" />
      <path
         d="m 293.73,92.165 c -12.599,0.247 -25.196,0.494 -37.795,0.741 -1.745,0.034 -22.64,1.959 -22.055,-1.314 0.37201,-2.081 56.41,-1.143 61.947,-1.143 -0.228,1.351 -1.142,1.355 -2.097,1.716"
         id="path357" />
      <path
         d="m 283.24,83.967 c -8.156,0.229 -16.313,0.458 -24.469,0.688 -3.55,0.1 -8.957,1.779 -10.983,-1.449 11.731,-1.568 25.757,-1.685 37.55,-0.953 -0.31396,1.166 -1.074,1.217 -2.098,1.714"
         id="path359" />
      <path
         d="m 276.19,75.581 c -3.817,0.225 -16.384,3.54 -17.729,-0.953 6.582,0.13 13.268,-0.537 19.824,-0.953 -0.15799,1.346 -1.008,1.35 -2.095,1.906"
         id="path361" />
      <path
         d="m 101.21,102.65 c -8.024,1.183 2.941,7.621 5.91,6.861 6.858,-1.754 -4.019,-5.737 -5.91,-6.861"
         id="path363" />
      <path
         d="m 101.21,116.37 c -7.988,1.201 2.982,7.619 5.91,6.863 6.863,-1.771 -4.031,-5.742 -5.91,-6.863"
         id="path365" />
      <path
         d="m 101.21,129.9 c -7.484,1.279 2.001,7.465 5.528,6.863 7.371,-1.256 -3.471,-5.42 -5.528,-6.863"
         id="path367" />
      <path
         d="m 101.21,143.63 c -7.688,1.219 2.42,7.653 5.91,6.861 6.563,-1.489 -3.708,-5.469 -5.91,-6.861"
         id="path369" />
      <path
         d="m 101.21,239.7 c -8.038,1.049 2.928,7.624 5.91,6.861 6.859,-1.754 -4.019,-5.737 -5.91,-6.861"
         id="path371" />
      <path
         d="m 101.21,253.42 c -7.6,0.688 2.429,7.88 5.91,6.861 6.749,-1.974 -3.902,-5.666 -5.91,-6.861"
         id="path373" />
      <path
         d="m 101.21,266.38 c -7.247,0.871 1.567,7.547 5.338,6.861 7.569,-1.375 -3.065,-5.269 -5.338,-6.861"
         id="path375" />
      <path
         d="m 144.48,147.06 c 38.744,-29.679 78.849,-58.636 120.06,-84.791 5.282,-3.352 6.556,-2.706 11.593,0.62 5.386,3.557 10.743,7.141 16.069,10.787 9.161,6.27 18.346,12.503 27.509,18.769 20.577,14.07 41.146,28.146 61.711,42.233 5.533,3.79 11.181,7.435 16.568,11.43 -3.574,0 -7.111,-0.01 -10.675,0.287 -0.763,0.063 -7.859,1.793 -4.479,2.477 6.377,1.289 14.221,-0.112 20.682,-0.47499 -7.669,-7.854 -18.391,-14.385 -27.375,-20.626 -11.251,-7.815 -22.515,-15.612 -33.793,-23.387 -18.922,-13.044 -37.933,-25.994 -57.201,-38.522 -4.82,-3.134 -9.669,-6.214 -14.724,-8.951 -2.204,-1.194 -12.016,7.132 -13.867,8.382 -10.039,6.773 -20.003,13.639 -29.925,20.583 -19.246,13.471 -38.529,26.897 -57.895,40.195 -10.912,7.492 -21.823,14.983 -32.835,22.327 2.846,1.394 7.283,1.997 8.577,-1.338"
         id="path377" />
      <path
         style="fill:#7f0000"
         d="m 221.3,233.98 c -1.492,13.396 -1.502,27.073 -2.021,40.538 -0.245,6.354 -0.15199,12.775 0.306,19.12 0.7,9.699 3.457,9.948 12.587,10.633 27.163,2.035 54.407,-0.64298 81.573,-0.52899 l -2.202,-44.777 c -0.37302,-7.595 -0.74701,-15.189 -1.12,-22.784 -0.198,-4.021 -6.9,-2.547 -10.5,-2.621 -25.187,-0.524 -53.825,-5.04 -78.623,0.42"
         id="path379" />
      <g
         style="fill:#ffffff"
         id="g393">
        <path
           d="m 270.47,278.01 c 2.21,1.339 8.026,2.61 11.245,1.812 2.167,-0.539 -9.292,-1.99 -11.245,-1.812"
           id="path381" />
        <path
           d="m 261.9,278.01 c -1.507,1.216 -7.958,2.582 -11.056,1.812 -2.185,-0.54501 9.072,-2.007 11.056,-1.812"
           id="path383" />
        <path
           d="m 217.68,302.4 c -0.146,-16.973 -0.293,-33.946 -0.43901,-50.919 -0.03,-3.483 -1.789,-13.496 0.82101,-15.603 2.619,-2.114 5.539,-0.636 6.672,1.523 2.514,4.791 0,17.878 0,23.396 v 20.662 c 0,4.733 1.952,15.778 -0.574,19.415 -1.412,2.035 -5.164,3.242 -6.48,1.526"
           id="path385" />
        <path
           d="m 211.96,302.4 v -68.05 c 0,-2.723 3.38,2.364 3.62,3.052 2.005,5.727 0,15.717 0,21.844 v 20.09 c 10e-6,2.884 0.19402,27.495 -3.62,23.064"
           id="path387" />
        <path
           d="m 310.12,302.4 c 0.05,-17.757 0.099,-35.514 0.14801,-53.271 0.007,-2.461 -1.318,-14.078 0.61298,-15.156 2.784,-1.554 5.595,2.182 6.291,4.002 2.267,5.922 0,17.359 0,23.762 v 21.108 c 0,3.975 2.001,16.234 -0.19101,19.173 -1.555,2.083 -5.714,2.393 -6.861,0.38199"
           id="path389" />
        <path
           d="m 318.51,302.4 v -67.592 c 0,-3.142 3.433,1.808 3.433,4.023 v 40.504 c 0,5.695 1.431,13.756 0,19.253 -0.53101,2.044 -1.744,6.238 -3.433,3.812"
           id="path391" />
      </g>
      <path
         d="m 101.21,157.35 c -7.709,1.073 2.386,7.659 5.91,6.862 6.682,-1.511 -3.824,-5.424 -5.91,-6.862"
         id="path395" />
      <path
         d="m 101.21,171.08 c -7.563,1.096 2.093,7.544 5.528,6.861 7.485,-1.487 -3.471,-5.445 -5.528,-6.861"
         id="path397" />
      <path
         d="m 101.21,184.8 c -7.802,1.135 2.61,7.791 5.91,6.861 6.797,-1.916 -4.086,-5.689 -5.91,-6.861"
         id="path399" />
      <path
         d="m 101.21,198.52 c -7.942,1.277 2.836,7.688 5.91,6.863 6.872,-1.843 -4.12,-5.711 -5.91,-6.863"
         id="path401" />
      <path
         d="m 101.21,212.25 c -7.953,1.274 2.859,7.671 5.91,6.861 6.863,-1.822 -4.101,-5.699 -5.91,-6.861"
         id="path403" />
      <path
         d="m 101.21,225.97 c -7.931,1.277 2.851,7.688 5.91,6.862 6.813,-1.838 -4.009,-5.668 -5.91,-6.862"
         id="path405" />
      <path
         style="fill:#7f0000"
         d="m 307.07,186.13 c 0,-6.714 0.349,-67.474 -0.34799,-67.474 h -63.199 c -1.384,0 -9.821,-1.084 -10.79,0 -1.242,1.39 0,9.606 0,11.379 v 24.556 c 0,2.372 -0.38301,31.538 0.34799,31.538 24.663,0.001 49.326,0.001 73.989,0.001"
         id="path407" />
      <g
         style="fill:#ffffff"
         id="g433">
        <path
           d="m 231.02,187.28 v -71.862 c 3.567,2.327 3.621,6.357 3.621,10.336 v 27.786 c 0,6.647 4.325,30.45 -3.621,33.74"
           id="path409" />
        <path
           d="m 308.6,116.18 v 72.052 c -3.417,-2.672 -3.433,-6.372 -3.433,-10.526 v -27.787 c 9.8e-4,-6.751 -4.301,-30.201 3.433,-33.739"
           id="path411" />
        <path
           d="m 305.93,187.09 h -73.766 c 2.581,-3.123 5.982,-3.239 9.911,-3.431 9.516,-0.46399 19.177,0 28.705,0 7.648,0 30.39,-4.454 35.15,3.431"
           id="path413" />
        <path
           d="m 232.92,114.85 h 73.956 c -2.957,3.554 -6.33,3.429 -10.746,3.429 h -27.869 c -7.422,-10e-4 -31.188,4.336 -35.341,-3.429"
           id="path415" />
        <path
           d="m 237.5,121.71 c 10.446,8.496 18.955,20.348 30.308,27.638 0.40399,-4.304 -7.791,-8.885 -10.781,-11.604 -5.6,-5.089 -12.716,-13.482 -19.527,-16.034"
           id="path417" />
        <path
           d="m 269.9,152.82 c 10.082,9.682 20.218,21.764 31.832,29.545 0.30301,-4.465 -8.136,-9.427 -11.323,-12.335 -6.328,-5.778 -12.961,-13.254 -20.509,-17.21"
           id="path419" />
        <path
           d="m 235.97,125 c 10.082,8.936 19.145,20.036 30.308,27.638 0.228,-4.302 -7.749,-8.846 -10.781,-11.602 C 249.867,135.92 242.676,127.841 235.97,125"
           id="path421" />
        <path
           d="m 268.38,154.11 c 9.919,10.126 20.476,20.81 31.643,29.544 0.44501,-4.202 -7.347,-8.882 -10.399,-11.554 -6.66,-5.827 -13.418,-13.974 -21.244,-17.99"
           id="path423" />
        <path
           d="m 266.66,152.25 c -8.86,10.191 -19.282,21.021 -29.926,29.354 -0.12199,-4.378 7.659,-9.166 10.781,-12.147 5.934,-5.664 12.792,-13.171 19.145,-17.207"
           id="path425" />
        <path
           d="m 303.26,121.57 c -4.774,5.449 -11.002,10.003 -16.391,14.865 -5.298,4.78 -10.932,11.001 -17.155,14.487 0.005,-4.364 8.944,-9.558 12.275,-12.355 6.446,-5.411 14.232,-13.8 21.271,-16.997"
           id="path427" />
        <path
           d="m 268.76,153.35 c -8.973,10.309 -19.417,20.609 -29.926,29.354 -0.29201,-4.355 7.732,-9.235 10.781,-12.146 6.059,-5.785 12.205,-12.595 19.145,-17.208"
           id="path429" />
        <path
           d="m 305.36,122.66 c -9.907,9.854 -21.595,22.166 -33.549,29.354 -0.23798,-4.473 8.979,-9.587 12.275,-12.357 6.471,-5.435 13.948,-13.746 21.274,-16.997"
           id="path431" />
      </g>
      <path
         d="m 377.98,149.92 v 149.82 c 5.807,-3.048 2.287,-27.643 2.287,-33.645 v -108.57 c 3e-5,-2.585 0.48901,-8.789 -2.287,-7.606"
         id="path435" />
      <path
         d="m 270.28,65.098 c 40.409,26.939 80.819,53.878 121.23,80.817 0.48801,-6.685 -18.439,-15.51 -23.571,-18.979 -11.247,-7.603 -22.408,-15.334 -33.591,-23.031 -21.369,-14.707 -42.611,-29.654 -64.256,-43.954 -0.66598,1.709 -0.414,3.949 0.189,5.147"
         id="path437" />
      <path
         d="m 267.42,66.051 -62.412,43.185 c -13.354,9.24 -26.708,18.48 -40.063,27.72 -2.223,1.538 -11.665,10.555 -14.75,8.959 -0.343,-0.17799 21.11,-16.143 24.16,-18.303 9.45,-6.695 18.889,-13.401 28.285,-20.17 19.327,-13.922 38.979,-27.381 58.275,-41.344 3.185,-2.304 6.368,-4.609 9.555,-6.91 -0.67304,2.399 -1.591,4.85 -3.05,6.863"
         id="path439" />
      <g
         style="fill:#ffffff"
         id="g445">
        <path
           d="m 320.03,232.26 c -20.267,0.328 -40.534,0.65599 -60.801,0.985 -12.373,0.2 -24.747,0.39999 -37.12,0.601 -1.458,0.024 -11.969,1.584 -8.819,-3.682 1.433,-2.395 21.56,-0.573 24.551,-0.573 9.906,0 19.821,-0.245 29.727,-0.36299 18.36,-0.22 36.772,-0.51001 55.131,-0.40001 -0.10199,1.806 -1.121,2.673 -2.669,3.432"
           id="path441" />
        <path
           d="m 320.6,234.93 c -20.194,0.183 -40.388,0.364 -60.582,0.547 -11.897,0.10701 -23.794,0.215 -35.691,0.32201 -3.361,0.03 -8.929,1.518 -10.849,-1.632 17.555,-1.843 36.325,-0.573 54.088,-0.573 18.375,0 36.758,-0.677 55.131,-0.569 -0.087,1.391 -0.93298,1.404 -2.097,1.905"
           id="path443" />
      </g>
      <path
         d="m 369.4,298.4 c -8.944,-0.044 -17.889,-0.087 -26.833,-0.13101 -3.704,-0.018 -11.557,1.811 -13.576,-1.775 13.677,-1.861 28.607,0.41101 42.508,0.19202 -0.41498,1.285 -1.383,1.384 -2.099,1.714"
         id="path447" />
      <path
         d="m 369.4,290.59 c -8.944,-0.087 -17.889,-0.17398 -26.833,-0.26199 -3.538,-0.034 -11.518,1.803 -13.576,-1.834 12.979,-1.64 29.56,-1.113 42.508,0.38 -0.34097,1.095 -1.139,1.205 -2.099,1.716"
         id="path449" />
      <path
         d="m 369.4,282.58 c -8.944,-0.044 -17.889,-0.088 -26.833,-0.13199 -3.717,-0.019 -11.469,1.811 -13.576,-1.774 13.339,-1.836 28.946,-0.449 42.508,0.19 -0.29599,1.229 -1.051,1.204 -2.099,1.716"
         id="path451" />
      <path
         d="m 369.4,274.58 c -9.601,-0.047 -19.201,-0.094 -28.802,-0.14099 -0.607,-0.003 -13.705,0.039 -11.034,-1.955 3.266,-2.438 17.36,0.189 21.539,0.189 6.67,0 13.887,-0.375 20.396,0.384 -0.44699,1.181 -1.427,1.237 -2.099,1.523"
         id="path453" />
      <path
         d="m 369.4,266.76 c -8.944,-0.087 -17.889,-0.17502 -26.833,-0.26199 -3.558,-0.035 -11.321,1.678 -13.576,-1.645 12.794,-1.751 29.881,-1.344 42.508,0.189 -0.31998,1.185 -1.092,1.185 -2.099,1.718"
         id="path455" />
      <path
         d="m 369.4,258.76 c -8.944,-0.044 -17.889,-0.088 -26.833,-0.13199 -3.575,-0.018 -11.534,1.814 -13.576,-1.773 12.983,-1.797 29.463,-0.914 42.508,0.379 -0.46799,1.206 -1.414,1.228 -2.099,1.526"
         id="path457" />
      <path
         d="m 369.4,250.94 c -8.944,-0.088 -17.889,-0.17601 -26.833,-0.26401 -3.525,-0.034 -11.585,1.778 -13.576,-1.834 12.694,-1.76 30.02,-1.15 42.508,0.383 -0.32098,1.182 -1.093,1.183 -2.099,1.715"
         id="path459" />
      <path
         d="m 369.4,242.94 c -8.944,-0.044 -17.889,-0.088 -26.833,-0.132 -3.703,-0.018 -11.553,1.811 -13.576,-1.774 13.669,-1.871 28.612,0.405 42.508,0.189 -0.38498,1.305 -1.335,1.37 -2.099,1.717"
         id="path461" />
      <path
         d="m 369.4,235.12 c -8.944,-0.088 -17.889,-0.176 -26.833,-0.26401 -3.537,-0.034 -11.514,1.801 -13.576,-1.832 12.912,-1.658 29.624,-1.113 42.508,0.38 -0.31998,1.181 -1.09,1.189 -2.099,1.716"
         id="path463" />
      <path
         style="fill:#ffffff"
         d="m 264.56,238.55 c 0.063,22.302 0.12799,44.603 0.19101,66.904 5.992,-3.508 2.286,-27.932 2.286,-34.692 0,-4.589 1.443,-33.516 -2.477,-32.212"
         id="path465" />
      <path
         d="m 143.91,150.49 c 2.538,0.031 15.438,-0.90799 15.438,1.178 0,5.526 -0.032,11.053 0.035,16.58 0.145,11.965 0.157,23.927 0.157,35.894 0,24.599 0.10701,49.182 -0.17799,73.78 -0.026,2.257 -2.345,23.999 1.321,22.959 2.966,-0.84201 0.953,-29.717 0.953,-33.155 v -117.72 c 0,-1.92 -4.506,-1.038 -6.195,-1.038 -2.906,0 -11.859,0.12999 -11.531,1.524"
         id="path467" />
      <path
         d="m 91.492,62.43 c 5.737,7.663 19.596,9.669 28.374,11.159 11.569,1.963 23.488,1.602 34.909,3.327 -9.992,-3.655 -22.484,-2.313 -33.047,-4.539 -6.72,-1.417 -13.344,-3.052 -19.752,-5.565 -3.381,-1.326 -7.737,-4.584 -10.484,-4.382"
         id="path469" />
      <path
         d="m 88.062,59.951 c 13.304,16.127 45.201,11.655 63.282,14.485 -9.807,-3.81 -22.585,-2.337 -33.048,-4.539 -6.719,-1.414 -13.344,-3.048 -19.751,-5.562 -3.223,-1.263 -7.81,-4.891 -10.483,-4.384"
         id="path471" />
      <path
         d="m 88.251,55.759 c 5.813,8.379 21.214,9.985 30.45,11.523 10.8,1.799 21.896,2.59 32.833,2.962 -11.001,-3.236 -23.807,-2.768 -35.191,-4.868 -6.066,-1.119 -12.486,-2.867 -18.173,-5.284 -3.094,-1.315 -7.592,-4.402 -9.919,-4.333"
         id="path473" />
      <path
         d="m 0,249.42 c 29.476,-2.101 59.482,0 89.015,0 -4.827,2.488 -11.708,1.332 -17.093,1.332 H 42.506 C 37.041,250.75198 0.325,252.147 0,249.42"
         id="path475" />
      <path
         d="m 0,252.28 c 29.635,0.313 59.376,0.328 89.015,0.19 -4.702,2.454 -11.832,1.334 -17.093,1.334 H 42.506 C 36.971,253.80501 0.295,255.27 0,252.28"
         id="path477" />
      <path
         d="m 0,262.95 c 29.648,0.315 59.358,0 89.015,0 -3.791,2.448 -10.697,1.526 -15.232,1.526 H 42.93 C 37.447,264.47701 0.312,265.87 0,262.95"
         id="path479" />
      <path
         d="m 0,266 c 29.365,-2.396 59.565,0 89.015,0 -4.075,2.252 -10.475,1.337 -15.232,1.337 H 42.93 C 37.441,267.337 0.326,268.891 0,266"
         id="path481" />
      <path
         d="m 6.481,268.67 v -24.014 c 0,-3.193 3.621,0.97 3.621,3.333 0,2.271 0.026,25.273 -3.621,20.681"
         id="path483" />
      <path
         d="m 35.072,268.67 c 0.061,-8.005 0.122,-16.009 0.183,-24.014 0.024,-3.203 3.438,1.088 3.438,3.333 0,5.115 1.326,12.146 0,17.059 -0.494,1.831 -1.843,6.395 -3.621,3.622"
         id="path485" />
      <path
         d="m 63.854,268.67 v -24.014 c 0,-3.169 3.623,0.96201 3.623,3.333 0,2.231 -0.057,25.255 -3.623,20.681"
         id="path487" />
      <path
         d="m 92.445,268.67 c 0.061,-8.005 0.122,-16.009 0.183,-24.014 0.025,-3.256 3.44,1.128 3.44,3.333 0,5.11 1.331,12.152 0,17.059 -0.502,1.848 -1.89,6.414 -3.623,3.622"
         id="path489" />
      <path
         d="m 203.57,68.91 c 9.754,-0.03001 -1.377,-12.199 0,0"
         id="path491" />
      <path
         d="m 96.639,68.91 c -6.204,-0.203 -5.194,-6.748 0.571,-5.147 -0.186,1.68 -0.182,3.505 -0.571,5.147"
         id="path493" />
    </g>
    <g
       transform="matrix(-0.33072917,0,0,-0.33072917,46.647133,233.34989)"
       id="g667">
      <g
         transform="scale(0.24)"
         id="g665">
        <path class="png-pig"
           style="fill:#fabeac"
           d="m 31.2656,167.191 3.3789,6.153 6.7383,5.293 6.2383,2.972 8.1797,1.016 6.2187,-0.609 3.5821,-0.922 4.5937,1.937 10.1172,5.317 8.2891,8.582 5.6132,5.836 7.2542,6.941 7.457,5.316 8.582,6.239 10.949,5.926 11.738,4.281 11.965,2.863 10.61,2.453 14.015,3.067 14.192,1.441 9.621,0.902 14.398,1.125 17.277,0.516 14.399,0.926 22.168,1.328 h 14.621 l 10.117,0.09 5.813,0.406 h 16.152 l 14.309,-0.406 13.269,-0.496 21.063,-2.364 10.117,-1.621 15.84,-2.773 14.394,-3.469 14.016,-4.394 10.609,-4.391 13.813,-6.738 8.988,-4.911 8.18,-5.316 11.422,-7.457 5.429,-4.801 9.711,-11.445 2.453,-3.988 1.938,-2.973 2.66,-6.738 1.125,-5.407 -0.316,-5.835 -2.047,-11.129 -1.938,-1.442 -3.473,1.442 -2.769,3.468 -2.231,3.383 -2.863,7.66 -3.578,3.469 -2.976,-1.422 -1.532,-4.39 0.723,-4.914 0.809,-6.961 -0.809,-7.254 -4.484,-18.27 -4.711,-11.043 -2.543,-5 -2.457,-3.289 -4.305,-5 -5.113,-6.3319 -2.344,-2.9727 -1.418,-4.8008 -0.43,-4.3945 3.09,-5.7227 4.594,-5.8125 5.926,-5.4296 4.886,-7.0508 1.848,-2.2305 1.535,-3.4922 1.442,-6.332 0.406,-2.8594 1.215,-9.3945 0.812,-5.7227 -1.332,-4.3945 -1.937,-5.8125 -3.875,-0.9219 -14.711,-0.5195 -12.481,0.8125 -1.937,3.582 -0.813,7.2539 1.531,5.7227 3.586,6.5312 0.809,4.8008 -1.215,5.3164 -3.898,1.8477 -5.094,-0.4063 -9.82,-0.4062 -11.649,0.9023 -7.457,2.5703 -3.785,2.8594 -5.926,5.4063 -4.797,7.0546 -4.711,4.5938 -4.593,0.9258 -5.118,-0.9258 -5.609,-3.0625 -4.191,-1.8242 -4.391,-1.8477 -7.66,-2.457 -6.242,-1.6211 -10.41,-2.3672 -6.961,-1.5312 -5.813,-1.0157 -4.504,-0.5156 -8.789,-0.8125 -5.203,-0.5156 -11.648,-1.4219 h -16.762 l -20.75,1.4219 -20.117,2.8594 -9.192,1.5312 -11.648,2.8633 -9.824,-0.8125 -6.645,-3.582 -1.937,-3.2657 -1.219,-2.9531 -0.203,-5.4297 v -8.1797 l 0.609,-6.5312 0.813,-11.9649 -0.293,-6.0156 -0.926,-5.92577 -5.024,-0.92188 -9.484,-0.40625 -4.598,0.40625 -9.214,0.60938 -2.747,1.93747 1.938,10.3164 0.203,6.2422 -1.129,12.2539 -1.012,7.2578 -0.812,4.7969 -2.457,4.6211 -4.301,1.6211 -7.953,0.4063 -4.621,-0.4063 -4.277,-0.6094 h -3.875 l -10.95,2.4571 -7.054,2.9492 -4.188,3.3789 -3.156,2.8633 -7.4571,6.4414 -2.5664,0.4062 -5.0039,-1.9375 -4.2813,-1.5312 -7.9726,-1.8477 -15.9532,-1.5312 -8.9882,0.6093 -8.1797,0.9219 -23.7891,4.3945 -4.7109,4.7969 -3.1758,5.4297 -1.8242,3.4688 -2.77347,5.207 -2.33985,6.4418 -0.3164,9.8 2.65625,1.938 7.45707,1.441 8.1796,2.344 7.8633,3.469 6.5547,4.914 5.8125,6.328 8.1797,12.055 1.7344,5.519 1.125,7.774 -2.8594,3.265 -3.1523,2.571 -4.6211,2.343 -5.0899,1.418 -9.6211,1.328"
           id="path661" />
        <path class="png-pig"
           style="fill:#363639"
           d="m 58.75,128.172 -0.0898,0.203 v 0.402 l -0.1133,0.317 -0.0899,0.293 -0.1093,0.316 -0.0938,0.203 -0.1992,0.317 -0.2031,0.199 -0.2266,0.203 -0.2031,0.293 -0.293,0.203 -0.3164,0.113 -0.2031,0.204 -0.3125,0.113 -0.293,0.09 h -0.3164 l -0.4062,0.113 h -0.5157 l -0.4062,-0.113 h -0.293 l -0.3164,-0.09 -0.293,-0.113 -0.2265,-0.204 -0.293,-0.113 -0.3125,-0.203 -0.2031,-0.293 -0.2031,-0.203 -0.2032,-0.199 -0.2031,-0.317 -0.1133,-0.203 -0.0898,-0.316 -0.1133,-0.293 -0.0898,-0.317 v -0.402 l -0.1133,-0.203 0.1133,-0.317 v -0.406 l 0.0898,-0.316 0.1133,-0.293 0.0898,-0.313 0.1133,-0.203 0.2031,-0.293 0.2032,-0.203 0.2031,-0.226 0.2031,-0.293 0.3125,-0.204 0.293,-0.109 0.2265,-0.203 0.293,-0.09 0.3164,-0.113 h 0.293 l 0.4062,-0.09 h 0.5157 l 0.4062,0.09 h 0.3164 l 0.293,0.113 0.3125,0.09 0.2031,0.203 0.3164,0.109 0.293,0.204 0.2031,0.293 0.2266,0.226 0.2031,0.203 0.1992,0.293 0.0938,0.203 0.1093,0.313 0.0899,0.293 0.1133,0.316 c 0,0 0,0.406 0.0898,0.723"
           id="path663" />
      </g>
    </g>
    <path class="png-hawk"
       style="fill-rule:evenodd;stroke:#000000;stroke-width:0.08592252"
       d="m 162.41479,73.595498 c 0.21031,-0.132125 0.52577,-0.317089 0.94637,-0.29067 0.4206,0.02643 1.367,0.07928 1.71755,0.02643 0.35055,-0.05284 0.63094,0.02642 0.73609,-0.184976 0.10511,-0.211397 0.14021,-0.898452 0.42062,-1.162664 0.28042,-0.264213 1.05159,-0.554913 1.15673,-0.819138 0.10512,-0.264224 0.14021,-0.369941 0,-0.634178 -0.14021,-0.264244 -0.45567,-0.502067 -0.91139,-0.660623 -0.45571,-0.158557 -0.87631,-0.264243 -0.87631,-0.264243 0,0 -0.91138,0.634184 -0.94637,0.792753 -0.035,0.158581 0.0701,0.317096 -0.14021,0.396368 -0.21031,0.07928 -0.56083,-0.158545 -0.63094,-0.581339 -0.0701,-0.422794 0.17527,-0.924829 0.14021,-1.215546 -0.035,-0.290705 -0.28041,-0.554906 -0.0701,-0.845569 0.2103,-0.29067 0.70104,-0.739883 1.08657,-0.951275 0.38555,-0.211396 1.0516,-0.237823 1.15673,-0.502065 0.10512,-0.264244 -0.66598,-1.268364 -0.66598,-1.506199 0,-0.237834 0.10511,-0.68706 -0.14021,-1.056965 -0.24536,-0.369912 -0.52578,-1.162671 -1.57734,-1.664713 -1.05157,-0.502048 -1.78762,-0.713438 -1.96289,-1.08341 -0.17529,-0.369972 -0.035,-0.369947 0.17526,-0.47564 0.21031,-0.105704 -0.56083,-0.713445 -0.80617,-1.294807 -0.24535,-0.581363 -0.66599,-1.744028 -0.49073,-1.849725 0.17525,-0.105694 0.70103,0 0.80617,0.211396 0.10511,0.211391 0.52577,1.506193 0.52577,1.506193 0,0 -0.10512,-0.977713 0.0701,-1.268364 0.17527,-0.290651 0.38558,-0.581338 0.59588,-0.50206 0.21031,0.07928 0.10512,1.79685 0.10512,1.79685 0,0 0.21031,-0.396368 0.35052,-0.634185 0.14021,-0.237817 0.24537,-0.449214 0.42062,-0.31709 0.17525,0.132125 0.035,1.4005 0.035,1.4005 0,0 0.28041,-0.317089 0.49073,-0.396368 0.21031,-0.07928 0.31547,-0.132124 0.45567,0.05284 0.14021,0.184977 0.10512,0.422788 0.10512,0.422788 0,0 0.10511,-0.264237 0.35051,-0.264237 0.24537,0 0.56082,0.07927 0.45568,0.290669 -0.10512,0.211391 0.94637,0.02643 0.87631,0.396362 -0.0701,0.369941 0,0.713438 0.28042,0.713438 0.28041,0 0.45567,0.290675 1.01651,0.184977 0.35052,0.158545 -0.17526,1.136227 0.0701,1.00415 0.24536,-0.132077 0.80617,-0.237823 1.01651,0.05284 0.21035,0.290675 -0.28041,0.634184 0,0.898458 0.28041,0.264273 0,0.50206 0.42062,0.713439 0.42062,0.211378 0.45568,0.05284 0.56084,0.528492 0.10511,0.475639 0.10511,0.68706 0.28041,0.872013 0.17525,0.184952 0.38557,0.317089 0.35052,0.713438 -0.035,0.39635 -0.35052,0.766322 0.0701,0.713445 0.42062,-0.0529 0.59588,-0.369947 0.91138,-0.502066 0.3155,-0.132118 0.38558,-0.158544 0.80617,-0.396367 0.4206,-0.237823 0.49074,-0.554912 0.7361,-0.634184 0.24535,-0.07927 0.45567,-0.05284 0.80616,-0.158545 0.35049,-0.105693 0.70104,-0.343515 0.87631,-0.449214 0.17527,-0.105694 0.17526,-0.158545 0.49073,-0.369942 0.31546,-0.21139 0.63093,-0.343515 0.84123,-0.687055 0.21031,-0.343545 0.17526,-0.369947 0.42062,-0.872019 0.24537,-0.502065 0.17527,-0.660617 0.31547,-0.872014 0.14021,-0.21139 0.14021,-0.396367 0.38557,-0.581338 0.24537,-0.184971 0.45568,-0.396368 0.49073,-0.211397 0.035,0.184978 0.035,0.449215 0.035,0.607747 0,0.158526 0.31547,-0.237823 0.59589,-0.634185 0.28041,-0.396361 0.1402,-0.449213 0.24536,-0.792753 0.10511,-0.343545 0,-0.581338 0.035,-0.977718 0.035,-0.396368 0.10511,-0.422787 0.1402,-1.00415 0.035,-0.581356 0.0973,-0.678942 0.0973,-1.101729 0,-0.422788 -0.0204,-0.593806 -0.0272,-0.906511 0.12169,-0.240018 0.25805,-0.313409 0.35051,-0.290669 0.11389,0.02274 0.26679,0.02425 0.35832,0.343516 0.0701,0.343521 0.13335,0.599687 0.20252,1.241924 -0.0701,0.634185 -0.10512,1.18911 0.035,1.347623 0.1402,0.158515 0.24536,0.132125 0.35051,-0.05284 0.10512,-0.184976 0.10512,-0.264242 0.24536,-0.581338 0.14021,-0.317102 0.13136,-0.524885 0.20345,-0.967452 -0.035,-0.660616 0.006,-0.961533 0.042,-1.463642 0.035,-0.502102 -0.004,-0.516723 0.0701,-0.819137 0.0632,-0.286277 0.15185,-0.354493 0.45567,-0.317089 0.17526,0.158545 0.21031,0.554912 0.28042,0.898452 0.0701,0.343545 0.0701,0.317095 0.10511,0.951273 0.035,0.634185 0.005,0.887353 -0.0652,1.09875 -0.0166,0.235622 -0.0788,0.469759 -0.04,0.565968 0.21031,-0.105693 0.21031,-0.290668 0.42061,-0.660622 0.21032,-0.369947 0.38558,-0.687055 0.45569,-1.109849 0.0701,-0.422787 0.25711,-0.577646 0.37683,-1.043002 0.28041,-0.449213 0.34178,-0.557813 0.53451,-0.568869 0.20345,0.110087 0.29986,0.209195 0.28041,0.554912 -0.10512,0.369935 -0.10512,0.554911 -0.28041,0.924835 -0.17526,0.369917 -0.14021,0.528486 -0.38557,0.92483 -0.14895,0.347913 -0.16736,0.466073 -0.24537,0.581338 0.35052,0.02642 0.34563,-0.07857 0.56083,-0.264244 0.35447,-0.508725 0.22009,-0.401537 0.35052,-0.554905 0.1947,-0.306823 0.36122,-0.419814 0.52578,-0.369942 0.17525,0.211392 0.24536,0.264244 0.10511,0.50206 -0.14021,0.237823 -0.035,0.07928 -0.24537,0.422787 -0.21031,0.343516 -0.42062,0.475646 -0.14021,0.449215 0.28042,-0.02642 0.31547,0 0.49074,-0.211392 0.17526,-0.21139 0,-0.237823 0.38556,-0.369941 0.38558,-0.132119 0.63095,-0.369942 0.7361,-0.184971 0.10511,0.184971 0.1402,0.158545 -0.10512,0.422794 -0.24537,0.264249 -0.49073,0.343522 -0.38557,0.475646 0.10511,0.132125 0.38557,0.158544 0.59589,0.158544 0.2103,0 0.24536,0.02643 0.1402,0.29067 -0.10511,0.264243 -0.1402,0.264243 -0.17526,0.396368 -0.035,0.132118 0.1402,0.237816 0.1402,0.237816 0,0 0.31547,-0.158544 0.0701,0.237823 -0.24537,0.396368 -0.38558,0.29067 -0.52578,0.475641 -0.14021,0.184976 -0.28041,0.369947 -0.0701,0.369947 0.21031,0 0.42063,-0.02642 0.38558,0.105693 -0.035,0.132119 -0.35052,0.264244 -0.17527,0.343516 0.17526,0.07928 0.31547,-0.02642 0.45568,0.07928 0.14021,0.105704 0,0.29067 0,0.422794 0,0.132125 -0.035,0.237823 0.035,0.369941 0.0701,0.132131 0.21031,0.264249 0.10522,0.396368 -0.10512,0.132125 0.035,0.158551 -0.24538,0.29067 -0.28042,0.13213 -0.45567,0.105693 -0.45567,0.237823 0,0.132124 -0.035,0.105693 0.1402,0.211396 0.17527,0.105694 0.38557,0.02642 0.24538,0.264243 -0.14022,0.237816 -0.10522,0.21139 -0.17527,0.422787 -0.0701,0.211404 0.035,0.105705 -0.28042,0.607747 -0.31546,0.502048 -0.63094,0.872014 -0.94637,1.00415 -0.31544,0.132137 -0.24537,0.422794 -0.035,0.47564 0.21031,0.05284 0.24537,0.290676 0.035,0.634184 -0.21032,0.343516 -0.45568,0.79276 -0.52578,1.030534 -0.0701,0.237769 -0.14021,0.264237 -0.49074,0.554906 -0.35052,0.290675 -0.63092,0.554912 -0.94637,0.634185 -0.31543,0.07927 -0.35051,0.343515 -0.56082,0.475646 -0.21031,0.132119 -0.28042,0.21139 -0.7361,0.21139 -0.45567,0 -0.45567,-0.07928 -0.91138,0.02642 -0.4557,0.105694 -0.66598,0.211391 -0.70104,0.369942 -0.035,0.15855 -0.17527,0.237823 -0.45568,0.184971 -0.28041,-0.05284 -0.0701,0.105693 -0.42061,0.211397 -0.35052,0.105693 -0.24537,0.237823 -0.66599,0.211396 -0.42062,-0.02643 -0.63094,-0.264243 -0.73609,0 -0.10512,0.264243 -0.14021,0.47564 -0.59588,0.237817 -0.45567,-0.237817 -0.70105,-0.872014 -0.94638,-0.21139 -0.24534,0.660616 -0.24537,0.819137 0.035,1.004149 0.28041,0.185013 0.35051,0.343516 0.98145,0.528492 0.63092,0.184971 0.63094,0.396362 1.08658,0.528493 0.45564,0.132118 0.49073,0.18497 1.1918,0.449213 0.70106,0.264244 0.87631,0.343515 1.29693,0.528493 0.42062,0.184969 0.52577,0.36994 0.63093,0.554911 0.10511,0.184965 0.56084,0.396368 0.38558,0.660617 -0.17527,0.264255 -0.52578,0.105693 -0.52578,0.237823 0,0.132125 0.0701,0.237823 -0.0701,0.502066 -0.14021,0.264237 -0.10511,0.369942 -0.59588,0.47564 -0.49072,0.105693 -0.77114,0.158544 -1.01651,0.07928 -0.24538,-0.07927 -0.31547,0.237818 -0.56083,0.158545 -0.24538,-0.07928 -0.35053,-0.317095 -0.5258,-0.184977 -0.17525,0.132119 0.14022,0.211397 -0.28041,0.290669 -0.42061,0.07928 -0.45567,-0.132118 -0.49073,0.05284 -0.035,0.184971 0.10522,0.369948 -0.35051,0.184971 -0.45567,-0.184971 -0.31547,-0.554912 -0.66598,-0.290669 -0.35052,0.264243 -0.17527,0.581339 -0.80617,0.31709 -0.63091,-0.264249 -0.42062,-0.29067 -0.91138,-0.264244 -0.49077,0.02642 -0.49074,0.05284 -0.66599,-0.237816 -0.17525,-0.29067 0.17526,-0.211397 -0.59589,-0.237823 -0.77114,-0.02643 -0.38557,0.343521 -0.87631,-0.158545 -0.49073,-0.502067 -0.59588,-1.00415 -0.80616,-0.449214 -0.21029,0.554931 0,0.687061 -0.31548,0.845575 -0.31547,0.158515 -1.92782,0.105693 -1.92782,0.105693 0,0 -0.035,0.607741 -0.17526,0.713439 -0.14022,0.105693 -0.49074,-0.105694 -0.80617,0.105693 -0.31543,0.21139 -0.10512,0.343515 -0.38557,0.528486 -0.28042,0.184976 -0.84124,0.211397 -0.84124,0.211397 0,0 0.38557,-0.237823 0.49073,-0.449214 0.10512,-0.211397 0.24537,-0.581339 0.24537,-0.581339 0,0 -0.56083,0.158539 -0.80617,0.184971 -0.24534,0.02642 -0.63094,-0.02642 -0.63094,-0.02642 l 0.10522,0.607746 c 0,0 -0.66599,0 -0.66599,-0.211397 0,-0.211397 0.2103,-0.79276 0.38557,-0.872019 0.17526,-0.07926 0.42062,-0.05284 0.42062,-0.05284 0,0 -0.0701,-0.264243 0.10512,-0.317089 0.17526,-0.05284 0.28041,0 0.56082,0 0.28042,0 1.54227,-0.29067 1.54227,-0.29067 0,0 -0.035,-0.68706 0.10512,-0.977711 0.14021,-0.290651 0.80615,-1.109849 0.49073,-1.241924 -0.31545,-0.132077 -0.56084,-0.02642 -0.7361,0.105693 -0.17525,0.132119 -0.49073,0.528486 -1.15672,0.634179 -0.66599,0.105693 -1.1918,0.158544 -1.1918,0.158544 0,0 -0.1402,0.05284 -0.1402,0.264244 0,0.211397 0.24536,0.422787 -0.10511,0.68706 -0.35052,0.264274 -0.63094,0.502066 -1.01652,0.369947 -0.38558,-0.132118 -0.45567,-0.290668 -0.45567,-0.290668 0,0 0.28041,0.132124 0.73609,0.05284 0.45566,-0.07928 0.28041,-0.739877 0.24536,-0.872014 -0.035,-0.132136 -0.38557,-0.264242 -0.59588,-0.132124 -0.21031,0.132119 -0.49073,0.47564 -0.31548,0.607741 0.17527,0.132099 -0.49072,-0.29067 -0.45567,-0.475641 0.035,-0.184971 0.1402,-0.317089 0.1402,-0.317089 0,0 -0.45567,0 -0.73608,-0.02642 -0.28041,-0.02642 -0.49073,-0.132125 -0.49073,0.02642 0,0.158545 0.14021,0.872014 -0.17526,0.422788 -0.31546,-0.449226 -0.45567,-0.554912 -0.1402,-0.792759 z"
       id="path729" />
    <g
       style="stroke-width:2;stroke-linecap:round;stroke-linejoin:round"
       transform="matrix(0.26458333,0,0,0.26458333,-22.560734,-79.486827)"
       id="g815">
      <path class="png-cloud"
         style="fill:#cccccc;stroke:#cccccc"
         d="m 262.24,388.71 c -13.132,0 -24.365,8.755 -28.939,21.153 -3.2836,-1.4488 -6.9285,-2.2234 -10.754,-2.2234 -12.897,0 -23.631,9.1352 -25.978,21.246 -1.6526,-0.41046 -3.3852,-0.61761 -5.1676,-0.61761 -11.606,0 -21.006,9.2545 -21.006,20.659 0,11.4045 9.4001,20.659 21.006,20.659 3.6494,0 7.0932,-0.92418 10.084,-2.5322 5.1621,5.1757 13.55,8.554 23.017,8.554 7.6253,0 14.534,-2.1895 19.637,-5.7438 4.3851,4.5957 10.522,7.4422 17.319,7.4422 8.8302,0 16.549,-4.8187 20.754,-12.013 2.8951,1.6282 6.1657,2.5631 9.609,2.5631 12.035,0 21.788,-11.171 21.788,-24.952 0,-13.272 -9.0552,-24.107 -20.475,-24.89 -1.9342,-16.53 -15.033,-29.306 -30.894,-29.306 z"
         id="path811" />
      <path class="png-cloud"
         style="fill:#ffffff;stroke:#000000"
         d="m 259.9,380.6 c -13.132,0 -24.365,8.755 -28.939,21.153 -3.2836,-1.4488 -6.9285,-2.2234 -10.754,-2.2234 -12.897,0 -23.631,9.1352 -25.978,21.246 -1.6526,-0.41046 -3.3852,-0.61761 -5.1676,-0.61761 -11.606,0 -21.006,9.2545 -21.006,20.659 0,11.4045 9.4001,20.659 21.006,20.659 3.6494,0 7.0932,-0.92418 10.084,-2.5322 5.1621,5.1757 13.55,8.554 23.017,8.554 7.6253,0 14.534,-2.1895 19.637,-5.7438 4.3851,4.5957 10.522,7.4422 17.319,7.4422 8.8302,0 16.549,-4.8187 20.754,-12.013 2.8951,1.6282 6.1657,2.5631 9.609,2.5631 12.035,0 21.788,-11.171 21.788,-24.952 0,-13.272 -9.0552,-24.107 -20.475,-24.89 -1.9342,-16.53 -15.033,-29.306 -30.894,-29.306 z"
         id="path813" />
    </g>
  </g>
</svg>
